<svg xmlns="http://www.w3.org/2000/svg" viewBox="0 0 100 100" width="500" height="500"><path fill="#78a0cf" d="M13 27a2 2 0 1 0 0 4 2 2 0 1 0 0-4Z"/><path fill="#f1bc19" d="M77 12a1 1 0 1 0 0 2 1 1 0 1 0 0-2Z"/><path fill="#cee1f4" d="M50 13a37 37 0 1 0 0 74 37 37 0 1 0 0-74Z"/><path fill="#f1bc19" d="M83 11a4 4 0 1 0 0 8 4 4 0 1 0 0-8Z"/><path fill="#78a0cf" d="M87 22a2 2 0 1 0 0 4 2 2 0 1 0 0-4Z"/><path fill="#fbcd59" d="M81 74a2 2 0 1 0 0 4 2 2 0 1 0 0-4zM15 59a4 4 0 1 0 0 8 4 4 0 1 0 0-8z"/><path fill="#78a0cf" d="M25 85a2 2 0 1 0 0 4 2 2 0 1 0 0-4Z"/><path fill="#fff" d="M18.5 51a2.5 2.5 0 1 0 0 5 2.5 2.5 0 1 0 0-5Z"/><path fill="#f1bc19" d="M21 66a1 1 0 1 0 0 2 1 1 0 1 0 0-2Z"/><path fill="#fff" d="M80 33a1 1 0 1 0 0 2 1 1 0 1 0 0-2Z"/><path fill="#ea5167" d="M66.7 31.6 45.2 37v27.6c0 2.4-2.8 5.5-7.7 7.3C32.1 74 27 73.7 26 71.2c-1-2.4 2.6-6.1 8-8.2 2.5-1 4.7-1.3 6.8-1.2V33.5l30.6-7.8v31.2c0 2.4-3.4 5.6-8.2 7.4-5.5 2.1-10.7 1.8-11.7-.6-1-2.5 2.6-6.2 8-8.3 2.6-1 5.3-1.6 7.3-1.6V31.6z"/><path fill="#472b29" d="M30.8 74c-2.8 0-4.9-.8-5.6-2.5-.3-.8-.2-1.8.2-2.7 1-2.4 4.2-5 8.3-6.5 2-.8 4.1-1.2 6.3-1.2V33.5c0-.4.2-.6.5-.7L71 25l.6.1.3.6v31.2c0 2.8-3.6 6.1-8.7 8-5.9 2.4-11.4 1.9-12.5-1-.4-.8-.3-1.8.1-2.7 1-2.4 4.2-4.9 8.3-6.5 2.4-.9 4.9-1.5 6.8-1.6V32.5l-20 5v27c0 3-3.3 6.2-8.2 8a20 20 0 0 1-7 1.5zm9.6-11.6a17 17 0 0 0-6.2 1.2c-3.7 1.4-6.6 3.7-7.5 5.7-.3.7-.3 1.2-.2 1.7.8 1.8 5.4 2.4 10.8.3 4.8-1.9 7.3-4.8 7.2-6.7V37c0-.4.3-.6.6-.7l21.5-5.4.6.1.2.6v22.2c0 .2 0 .4-.2.5 0 .2-.2.3-.5.2-1.9 0-4.5.6-7 1.5-3.7 1.5-6.6 3.7-7.5 5.7-.3.7-.3 1.2-.1 1.7.7 1.8 5.3 2.4 10.7.3 5-2 7.8-5 7.8-6.8V26.6L41.4 34v27.7a.7.7 0 0 1-.7.8h-.3z"/><path fill="#1f212b" d="M45.4 41.2 62.3 37"/><path fill="#472b29" d="M45.4 41.7a.5.5 0 0 1-.1-1l16.9-4.1c.3 0 .5.1.6.4s-.1.5-.4.6l-16.9 4zm14.4 21-.3-.1c0-.1 0-.3.2-.3 3.3-.8 6-2.4 7.2-3.6a.2.2 0 1 1 .4.3 16 16 0 0 1-7.5 3.8zm-3.5.5-1.8-.1-.2-.3c0-.1.1-.2.3-.2h2.1c.2 0 .3.2.3.3 0 .2-.1.3-.2.3h-.5zM30.6 71h-.9l-.2-.3c0-.1.1-.2.3-.2 1.6.2 4.8-.3 7.8-1.8a.3.3 0 0 1 .2.5 17.4 17.4 0 0 1-7.2 1.8zm4.2-5.5a.2.2 0 0 1-.1-.4 19 19 0 0 1 4.3-1.2c.2 0 .3 0 .3.2s0 .3-.2.3a18.6 18.6 0 0 0-4.3 1.1zM31.5 67.3a.2.2 0 0 1-.2-.5l1.5-.9a.2.2 0 1 1 .3.5 22.8 22.8 0 0 0-1.6.8zM39.8 68l-.3-.1.1-.4c1-.6 2-1.5 2.2-1.8a.3.3 0 0 1 .4.4 12.5 12.5 0 0 1-2.5 1.9z"/></svg>